<?xml version="1.0" encoding="iso-8859-1"?>
<!-- Uploaded to: SVG Repo, www.svgrepo.com, Generator: SVG Repo Mixer Tools -->
<!DOCTYPE svg PUBLIC "-//W3C//DTD SVG 1.1//EN">
<svg fill="#000000" version="1.1" id="Capa_1" xmlns="http://www.w3.org/2000/svg"
     width="800px" height="800px" viewBox="0 0 392.186 392.186"
     xml:space="preserve">
<g>
	<g>
		<g>
			<path d="M368.62,17.951H23.568C10.57,17.951,0,28.524,0,41.52v309.146c0,12.996,10.57,23.568,23.568,23.568h345.053
				c12.994,0,23.564-10.572,23.564-23.568V41.52C392.188,28.525,381.614,17.951,368.62,17.951z M297.56,57.528
				c0-4.806,3.896-8.703,8.701-8.703h8.703c4.808,0,8.701,3.896,8.701,8.703v9.863c0,4.806-3.896,8.702-8.701,8.702h-8.703
				c-4.805,0-8.701-3.896-8.701-8.702V57.528z M257.093,57.528c0-4.806,3.898-8.703,8.703-8.703h8.701
				c4.805,0,8.703,3.896,8.703,8.703v9.863c0,4.806-3.898,8.702-8.703,8.702h-8.701c-4.805,0-8.703-3.896-8.703-8.702V57.528z
				 M363.903,345.951H28.282V102.235h335.621V345.951L363.903,345.951z M364.132,67.391c0,4.806-3.896,8.702-8.701,8.702h-8.703
				c-4.809,0-8.702-3.896-8.702-8.702v-9.863c0-4.806,3.896-8.703,8.702-8.703h8.703c4.806,0,8.701,3.896,8.701,8.703V67.391z"/>
            <path d="M50.831,252.125c0.234,0,0.471-0.011,0.708-0.033l50.08-4.679c-0.202,1.065-0.311,2.164-0.311,3.287
				c0,9.562,7.664,17.341,17.085,17.341c9.423,0,17.09-7.779,17.09-17.341c0-2.237-0.426-4.375-1.191-6.341l13.807-1.291
				c4.079,23.511,24.01,41.356,47.989,41.356c23.979,0,43.913-17.847,47.988-41.356l13.81,1.291c-0.766,1.966-1.19,4.104-1.19,6.341
				c0,9.562,7.666,17.341,17.089,17.341c9.421,0,17.088-7.779,17.088-17.341c0-1.124-0.11-2.222-0.313-3.287l50.077,4.681
				c0.238,0.022,0.476,0.033,0.711,0.033c0.158,0,0.318-0.005,0.479-0.015c3.939-0.244,7.062-3.521,7.062-7.524
				c0.002-3.647-2.591-6.692-6.035-7.389L242.14,213.372c-4.174-13.979-13.654-24.53-31.503-28.124l-6.444-32.913h8.983
				c3.082,0,5.583-2.5,5.583-5.583c0-3.082-2.5-5.582-5.583-5.582h-11.173l-0.438-2.235c-0.514-2.619-2.81-4.509-5.479-4.509
				s-4.966,1.89-5.478,4.509l-0.438,2.235h-11.172c-3.084,0-5.582,2.5-5.582,5.582c0,3.083,2.496,5.583,5.582,5.583h8.984
				l-6.445,32.913c-17.847,3.594-27.325,14.145-31.502,28.124l-100.935,23.88c-3.854,0.911-6.345,4.65-5.704,8.56
				C44.002,249.48,47.179,252.125,50.831,252.125z M196.088,273.065c-5.183,0-9.381-5.25-9.381-11.727
				c0-6.479,4.198-11.729,9.381-11.729c5.184,0,9.383,5.25,9.383,11.729C205.471,267.816,201.271,273.065,196.088,273.065z
				 M165.962,222.547l3.354-12.677c0.975-3.678,4.301-6.241,8.105-6.241h37.332c3.806,0,7.134,2.563,8.104,6.241l3.276,12.386
				c0.232,0.771,0.359,1.588,0.359,2.437c0,4.632-3.756,8.385-8.389,8.385c0,0-0.003,0-0.005,0h-44.034
				c-2.604,0-5.059-1.208-6.645-3.271C165.837,227.745,165.296,225.062,165.962,222.547z"/>
		</g>
	</g>
</g>
</svg>